PathFileType	4	(X/Y/Z)	Patient4_TMGait_0pt4_02_right_27.trc.trc
DataRate	CameraRate	NumFrames	NumMarkers	Units	OrigDataRate	OrigDataStartFrame	OrigNumFrames
79.096045197740	79.096045197740	6	33	mm	79.096045197740	89	       141
Frame#	Time	Sacral			L.Shoulder			Chest			R.Shoulder			Neck			R.ASIS			L.ASIS			R.Thigh.Superior			R.Thigh.Lateral			R.Thigh.Inferior			R.Patella			L.Thigh.Superior			L.Thigh.Lateral			L.Thigh.Inferior			L.Patella			L.Shank.Superior			L.Shank.Lateral			L.Shank.Inferior			R.Shank.Superior			R.Shank.Lateral			R.Shank.Inferior			R.Heel			R.Midfoot.Superior			R.Midfoot.Lateral			R.Toe			L.Heel			L.Midfoot.Lateral			L.Midfoot.Superior			L.Toe			L.Elbow			L.Wrist			R.Elbow			R.Wrist			
		X1	Y1	Z1	X2	Y2	Z2	X3	Y3	Z3	X4	Y4	Z4	X5	Y5	Z5	X6	Y6	Z6	X7	Y7	Z7	X8	Y8	Z8	X9	Y9	Z9	X10	Y10	Z10	X11	Y11	Z11	X12	Y12	Z12	X13	Y13	Z13	X14	Y14	Z14	X15	Y15	Z15	X16	Y16	Z16	X17	Y17	Z17	X18	Y18	Z18	X19	Y19	Z19	X20	Y20	Z20	X21	Y21	Z21	X22	Y22	Z22	X23	Y23	Z23	X24	Y24	Z24	X25	Y25	Z25	X26	Y26	Z26	X27	Y27	Z27	X28	Y28	Z28	X29	Y29	Z29	X30	Y30	Z30	X31	Y31	Z31	X32	Y32	Z32	X33	Y33	Z33	

89	36.752571428571	919.210750604990	1009.441871265034	439.610208036656	1085.194282099082	1424.369438401360	217.004163443341	1205.958131800534	1363.646921618921	367.800606135503	1144.533980180514	1447.737095207176	545.997877817408	1084.496300077615	1493.646140868113	368.554646270986	1157.010921259745	940.699310285268	530.163604460629	1116.555864572177	959.259292843394	259.869922332868	1198.611463991899	738.297408687590	503.994110236547	1129.009238025805	628.148811218564	579.359832992483	1200.950232481147	570.282309467388	496.447656848223	1196.689210434189	463.186766184675	518.721022922012	1182.065451536536	758.205323362439	290.090344005805	1102.310952996035	636.056846929201	234.903039772660	1195.860898949994	566.187169984763	294.580678963163	1201.700191212179	496.719016938937	303.736471423179	1177.449129809777	423.304339457707	295.974570808709	1091.507598919036	305.789049822998	246.130819566770	1148.874135422119	195.909066564527	314.947105177040	1123.571035016558	394.028496461012	533.148818068202	1011.768577934081	348.442979963335	605.999327531388	997.979078136559	238.815700059941	557.475181737583	798.565570357768	157.617176801883	547.374603407615	974.656851545200	123.604332156678	579.337815751090	869.472409320431	112.574004401976	620.379673861123	1054.742194676048	33.005092341601	608.966997820597	1026.698208101091	38.800463134057	359.193679277044	1098.503262519463	35.767930347305	276.703815156456	1182.168884580473	96.846174270823	302.339854252335	1310.217180586691	45.303796858590	270.387656989717	1005.186814943788	1075.160358517148	121.011732174931	1090.193085093930	826.709108274298	101.290765802545	1201.780441244669	1102.273729851312	658.228638548944	1401.307701376016	998.749317738842	536.562118914679	
90	36.765214285714	918.685943269347	1009.516377769717	436.394562283572	1086.091902506629	1424.992427727588	214.650679786956	1205.614628193627	1364.225771040708	366.421198731242	1142.641140701027	1448.016011563242	544.242704067419	1084.051206600690	1494.161490349875	366.268880169917	1156.141225464787	941.425533121245	528.313762997895	1117.142032720208	959.634181030091	257.877716296971	1202.259166237955	741.342555630496	501.657984921753	1135.543808311512	629.846163534578	577.271314183603	1209.025377276757	573.298122826795	494.416447785193	1206.271816768873	465.237174638181	516.994507831626	1181.178002410155	757.568916252851	288.242069772889	1100.805063796986	636.032466229487	233.140547325887	1193.566096575947	565.562244387875	293.182536325918	1198.832890436893	496.049415257431	302.445139153005	1174.252996950424	422.771706269400	294.852106760855	1087.791468266078	305.534461860667	245.246572565294	1144.512283942417	195.616801705401	314.520907482463	1131.807236077433	396.351543434582	531.417216624331	1018.604764811802	353.764631005870	604.002272323727	1002.706317834419	244.100765829960	556.265682520454	801.681240242555	169.556663547824	545.908957350516	976.367040319129	128.214050115478	578.339926884206	870.474672099998	121.742367628257	619.183568845748	1052.235746747967	32.890055403627	608.452233015571	1021.599824367373	38.816262695242	359.126714416225	1093.403646676998	35.729431650726	276.631426596311	1177.147433572016	96.723475533818	302.242324686874	1305.172515920233	44.981962568302	270.333161971350	1008.187773934162	1075.911054848900	116.225488392081	1100.213381239388	829.841887749283	96.705596171027	1195.855647390607	1101.657940398476	657.093276937069	1391.213299437007	982.222813325748	541.542344970669	
91	36.777857142857	918.121384071216	1009.530295523883	433.308604896032	1086.886475120465	1425.576084116538	212.503300517231	1205.202982221593	1364.730139337813	365.193129700334	1140.731371177513	1448.160353646605	542.677689889955	1083.607943525612	1494.603067887301	364.226995221299	1155.192729584162	942.086521225885	526.505584007639	1117.631227909113	959.960880801274	255.932840355896	1205.562616878848	744.455431088090	499.321329414044	1141.844769107686	631.753806837616	575.376663224079	1216.762508053869	576.554216509199	492.574879395775	1215.649760489524	467.623325862386	515.418911374551	1180.364792041427	756.991740068594	286.360382111516	1099.277346262909	635.975128994308	231.434181267175	1191.363898631158	564.942467287561	291.696111130987	1196.104352403225	495.380488835498	301.106498956314	1171.168090835374	422.226572939491	293.721328302452	1084.122162992950	305.305209679419	244.351047294925	1140.158301991657	195.319267631880	314.070206107128	1140.027597650420	398.886720822052	529.818975771223	1025.578108146382	358.986852931830	602.097932804179	1007.824076980674	249.333067402570	555.066501471783	805.562390203777	180.717404518928	544.350794970029	978.813053684616	132.959188401180	577.280549431928	872.382598697986	130.454936625146	617.864917380559	1050.846748449064	33.149853550757	607.790596603173	1016.514822499538	38.838287976839	359.056904593160	1088.316318873763	35.700891653399	276.552147959688	1172.131397394551	96.618892182567	302.129838329258	1300.132966580271	44.700846323226	270.276917445828	1011.384361909441	1076.633896501713	111.470174601169	1110.306752680155	833.135761973754	92.277139994420	1189.555585371042	1100.931123282681	656.236985849862	1379.861396790008	966.051138132045	547.652455163285	
92	36.790500000000	917.516288037204	1009.506384974349	430.352222656693	1087.575804904978	1426.133383296725	210.556786025908	1204.729941505390	1365.172862653115	364.104290404458	1138.822265305561	1448.192187244847	541.288212740290	1083.181262850723	1494.985564134580	362.423389947869	1154.172462215722	942.709260683387	524.747128687159	1118.024442713881	960.245880346827	254.042423902342	1208.494733719104	747.610993239938	497.038303076613	1147.830300059766	633.861029342000	573.702649176168	1224.096119264198	580.027092558048	490.967541164143	1224.756693334502	470.330733628694	514.058885533973	1179.625239455415	756.463439012960	284.435240431574	1097.714666142596	635.880404254298	229.805763834642	1189.248848543679	564.325264146310	290.148048907957	1193.510825761081	494.711818443972	299.748002629460	1168.189690479016	421.670570333683	292.605644663162	1080.500145159806	305.105042734925	243.465858633932	1135.804731267099	195.016512038640	313.609482027063	1148.194891051265	401.603490653321	528.410433671258	1032.653039838069	363.988802128550	600.332671533595	1013.378839804173	254.360152158801	553.920443651540	810.234908843262	190.698295479916	542.752038717813	982.150739513083	137.650293385830	576.199494817828	875.321243636646	138.367429088632	616.460723241683	1050.893539548303	33.827623525153	606.966931729864	1011.440478388817	38.868976332928	358.984231280261	1083.239541289667	35.683546724588	276.469255384033	1167.118993520450	96.532214122936	302.007455454205	1295.096651676784	44.458056666748	270.219273852774	1014.810818952490	1077.333171426629	106.783163817608	1120.458286997304	836.571560468233	88.045210284143	1182.855003578830	1100.143423373532	655.675212287643	1367.238973528747	950.433886312144	554.846747811250	
93	36.803142857143	916.868296316753	1009.464902307739	427.521662623168	1088.173055369435	1426.675615102221	208.798295610019	1204.205423156765	1365.565773595125	363.145133148523	1136.921697033068	1448.134954447538	540.056823705735	1082.781759736399	1495.325205834137	360.841070305402	1153.087803833739	943.322407049321	523.056848272256	1118.322517315965	960.492975558891	252.219841174547	1211.055712228724	750.784305379438	494.877243811445	1153.432977718800	636.146922697045	572.271398427070	1230.977701567441	583.684489078484	489.632266890780	1233.530385304784	473.340652684064	512.965310968688	1178.936312534843	755.968798985080	282.486385275296	1096.110774497031	635.750402443922	228.271579387552	1187.202267903905	563.710125036048	288.581491279597	1191.029815230903	494.042769751810	298.402349940328	1165.298843397068	421.106142629145	291.528525830751	1076.918407636241	304.933544474696	242.613122314170	1131.444541035362	194.708697554846	313.154489944769	1156.280138179385	404.462738251240	527.237291675626	1039.809755609815	368.639252696325	598.751042006384	1019.432372482198	259.017344454558	552.868900098583	815.736760188704	199.123695445253	541.171501338294	986.539495705371	142.075660206244	575.141873238162	879.415613647654	145.152541090879	615.022137029056	1052.681516303299	34.905364729774	605.992282792706	1006.373185770063	38.910141560428	358.908996835674	1078.171411209004	35.677372385892	276.386267975096	1162.109404766539	96.460311511372	301.881189487365	1290.062170334717	44.245632129223	270.160980918097	1018.484794414285	1078.016289894999	102.201609203569	1130.651530867262	840.132988518468	84.047697007920	1175.743370866613	1099.353870975729	655.416128589637	1353.370965363785	935.564176889365	563.052134601352	
94	36.815785714286	916.174154880180	1009.421597724924	424.811193345424	1088.704581253686	1427.211013371513	207.210065689679	1203.642113379474	1365.917708174154	362.309205911494	1135.030148884776	1448.010878970634	538.965014184372	1082.417098036987	1495.637126969886	359.456101546133	1151.946491102856	943.952640263413	521.460224886848	1118.525945394720	960.703113056054	250.482431159751	1213.267839305082	753.951408070334	492.909452093410	1158.603248624005	638.581161378922	571.097318454693	1237.374060269543	587.485361768821	488.593975836582	1241.913268566946	476.628770751765	512.170106997982	1178.260261715674	755.491476749479	280.558215298439	1094.464275743186	635.592287010689	226.843071192433	1185.195883065849	563.098028263752	287.047542135585	1188.624787037719	493.373638391690	297.104595496638	1162.466126673349	420.536970558621	290.512180955797	1073.364902124910	304.787238716300	241.813875892125	1127.073106452567	194.396763105874	312.721230738201	1164.259737726011	407.418432485557	526.330393085357	1047.042248442678	372.803900433895	597.393080924547	1026.053616269900	263.139695039301	551.949658058446	822.118099753565	205.674502001554	539.670553589045	992.127375743292	146.018530011467	574.159284505303	884.780581364819	150.527213790026	613.612390689865	1056.469580673879	36.294773044689	604.912070639856	1001.309316637390	38.962358791713	358.832027742783	1073.110267497016	35.681453908513	276.306451617086	1157.102448695503	96.398546982319	301.757476648900	1285.028690535128	44.053441160356	270.103007535025	1022.406813962684	1078.691885479916	97.760655704901	1140.866937136328	843.806627914137	80.318187728317	1168.225857625869	1098.624942977643	655.461180590433	1338.321470468275	921.624111190332	572.165701147325	
